<?xml version="1.0" encoding="UTF-8"?>
<svg version="1.1" xmlns="http://www.w3.org/2000/svg" width="1200" height="1200">
<path d="M0 0 C396 0 792 0 1200 0 C1200 396 1200 792 1200 1200 C804 1200 408 1200 0 1200 C0 804 0 408 0 0 Z " fill="#FEFEFE" transform="translate(0,0)"/>
<path d="M0 0 C1.12833252 -0.00997513 2.25666504 -0.01995026 3.41918945 -0.03022766 C4.64785233 -0.03089233 5.8765152 -0.03155701 7.14241028 -0.03224182 C8.44380951 -0.04056534 9.74520874 -0.04888885 11.08604431 -0.0574646 C14.65036426 -0.07937305 18.21459844 -0.08820398 21.77897811 -0.09329104 C24.00948517 -0.0969401 26.23996997 -0.10318312 28.47046852 -0.11029243 C36.2626557 -0.13477793 44.05477644 -0.14783608 51.84700012 -0.15138245 C59.0924052 -0.15501313 66.33738548 -0.18487689 73.58266085 -0.22678703 C79.81642665 -0.2615724 86.05005228 -0.27693233 92.28391439 -0.27762848 C96.00111169 -0.27841875 99.71787637 -0.28704019 103.43497276 -0.31562614 C107.58775246 -0.3468487 111.73953186 -0.33770799 115.89241028 -0.32521057 C117.110952 -0.34004486 118.32949371 -0.35487915 119.58496094 -0.37016296 C128.36923667 -0.29508931 135.00253618 1.6032343 141.77839661 7.33665466 C142.55183411 8.29571716 142.55183411 8.29571716 143.34089661 9.27415466 C144.14527161 10.23321716 144.14527161 10.23321716 144.96589661 11.21165466 C148.08177572 15.88547333 148.61479018 19.75153081 148.59089661 25.33665466 C148.59863098 27.14843201 148.59863098 27.14843201 148.60652161 28.99681091 C148.3596741 32.04247356 147.94345636 33.72404966 146.34089661 36.27415466 C148.19714661 36.08852966 148.19714661 36.08852966 150.09089661 35.89915466 C157.30111004 35.91054521 163.96648541 39.3165825 169.33308411 44.02024841 C175.92876699 51.38706834 177.62244882 58.64211547 177.57527161 68.27806091 C177.26674166 72.22210211 176.22251736 74.82451661 174.34089661 78.27415466 C175.11433411 78.37212341 175.88777161 78.47009216 176.68464661 78.57102966 C186.16979504 79.93275889 192.88252943 81.91879205 199.34089661 89.27415466 C200.04214661 90.05790466 200.74339661 90.84165466 201.46589661 91.64915466 C206.22688332 98.31453607 207.36562443 104.17341156 206.34089661 112.27415466 C205.25743604 116.05923118 203.90538136 119.66326797 202.34089661 123.27415466 C203.79495911 123.36696716 203.79495911 123.36696716 205.27839661 123.46165466 C213.62483596 124.72626669 219.0199255 129.39871355 223.93074036 135.99290466 C228.53067248 143.4343461 228.44028418 152.33376637 226.87605286 160.78587341 C223.96358446 169.55774569 217.83161213 173.96643261 210.02449036 178.20774841 C207.23572258 179.31594871 205.30962088 179.49425899 202.34089661 179.27415466 C202.77402161 180.03985779 202.77402161 180.03985779 203.21589661 180.82102966 C206.9390777 188.11225931 207.74128123 195.12988464 205.57527161 203.08665466 C202.26995069 211.90084378 197.40082681 216.60787928 189.34089661 221.27415466 C184.48760205 223.39747103 179.57206666 223.83241141 174.34089661 224.27415466 C174.83589661 225.34665466 175.33089661 226.41915466 175.84089661 227.52415466 C178.76650456 235.55190983 178.36529261 242.91910606 174.77839661 250.64915466 C170.29979001 258.66460479 164.23984785 263.70629808 155.34089661 266.27415466 C152.24889372 266.5650563 149.45644511 266.47196727 146.34089661 266.27415466 C146.66316223 266.80653748 146.98542786 267.33892029 147.31745911 267.88743591 C149.92098656 273.95902093 149.20390202 282.0743487 146.84089661 288.14915466 C143.71494089 294.15805893 138.7736747 297.85120899 133.02839661 301.21165466 C128.07586432 302.63865549 123.45725275 302.52395867 118.34089661 302.27415466 C118.67089661 302.93415466 119.00089661 303.59415466 119.34089661 304.27415466 C120.08677466 311.20016512 120.05064696 316.8599176 115.83308411 322.59056091 C111.24287605 327.76956529 106.74313119 331.02559567 99.68041992 331.5415802 C98.24466353 331.55945185 96.80874555 331.56644973 95.37287903 331.56468201 C94.58520645 331.57139923 93.79753387 331.57811646 92.98599243 331.58503723 C90.38938538 331.60399034 87.79303722 331.60794019 85.19636536 331.61009216 C83.38421524 331.61652245 81.57206616 331.62325098 79.75991821 331.63026428 C75.96291193 331.64223067 72.16599658 331.64594581 68.36897278 331.64476013 C63.51684131 331.64455709 58.66529652 331.67184647 53.81330395 331.70630455 C50.07022453 331.72860488 46.32728554 331.7325967 42.5841465 331.73154068 C40.79606926 331.73389241 39.00798791 331.74269172 37.21997643 331.75820541 C34.71193939 331.77792734 32.20515749 331.77200356 29.69709778 331.75999451 C28.96695465 331.77123352 28.23681152 331.78247253 27.48454285 331.79405212 C21.2084751 331.71815858 16.04628192 329.65572938 11.31745911 325.49290466 C10.87144348 324.92571716 10.42542786 324.35852966 9.96589661 323.77415466 C9.50441223 323.20696716 9.04292786 322.63977966 8.56745911 322.05540466 C5.74305582 317.95372346 5.085376 315.18267967 5.15339661 310.14915466 C5.15984192 309.09470154 5.16628723 308.04024841 5.17292786 306.95384216 C5.34089661 304.27415466 5.34089661 304.27415466 6.34089661 302.27415466 C5.56745911 302.32056091 4.79402161 302.36696716 3.99714661 302.41477966 C-2.83552131 302.65155528 -8.13852163 302.56921309 -13.65910339 298.27415466 C-19.45648957 292.83781567 -23.26655127 288.13487364 -23.92472839 279.98509216 C-23.91957214 278.88423279 -23.91441589 277.78337341 -23.90910339 276.64915466 C-23.91683777 274.99013123 -23.91683777 274.99013123 -23.92472839 273.29759216 C-23.66958724 270.39348555 -23.16812338 268.72930624 -21.65910339 266.27415466 C-23.39160339 266.36696716 -23.39160339 266.36696716 -25.15910339 266.46165466 C-33.15811919 266.41940634 -40.02522606 262.87318328 -45.65910339 257.27415466 C-51.59713163 249.00470969 -53.42669742 242.41918899 -52.65910339 232.27415466 C-51.90390595 229.38947607 -50.91478075 226.99478893 -49.65910339 224.27415466 C-50.92754089 224.14460388 -50.92754089 224.14460388 -52.22160339 224.01243591 C-62.42774879 222.74826563 -68.81380375 220.07019037 -75.65910339 212.27415466 C-81.33563978 204.65137723 -82.68945726 197.65516715 -81.65910339 188.27415466 C-80.62631413 185.08148872 -79.30963654 182.19206147 -77.65910339 179.27415466 C-78.77285339 179.25352966 -79.88660339 179.23290466 -81.03410339 179.21165466 C-87.83770709 178.33104638 -93.28499932 174.12787572 -97.59269714 168.94993591 C-103.21266434 160.79626647 -103.51938008 152.99429245 -102.65910339 143.27415466 C-100.33648164 135.28558567 -95.57105912 130.26810863 -88.60832214 126.02415466 C-84.88469312 124.00455926 -81.99552482 122.73210199 -77.65910339 123.27415466 C-77.94785339 122.77528748 -78.23660339 122.27642029 -78.53410339 121.76243591 C-82.02364877 115.01355823 -82.71567384 108.78855653 -81.65910339 101.27415466 C-79.63950578 95.17397662 -76.57493129 90.45260838 -71.65910339 86.27415466 C-70.87535339 85.57290466 -70.09160339 84.87165466 -69.28410339 84.14915466 C-62.96897075 79.63834563 -57.26023675 78.71768156 -49.65910339 78.27415466 C-50.15410339 77.40790466 -50.64910339 76.54165466 -51.15910339 75.64915466 C-53.93898961 69.06028975 -53.78224202 61.22955593 -51.85050964 54.42649841 C-48.38371992 46.66520793 -42.47095012 41.49195639 -35.22160339 37.27415466 C-30.62143984 35.98288068 -26.40228126 36.01647699 -21.65910339 36.27415466 C-21.98136902 35.75337341 -22.30363464 35.23259216 -22.63566589 34.69602966 C-25.00729877 29.08376867 -24.48657116 21.70620216 -23.07707214 15.86009216 C-20.34515026 9.59787852 -14.49633245 4.09450298 -8.36802197 1.18728542 C-5.41483376 0.19181549 -3.11101002 0.01479414 0 0 Z " fill="#FCFCFC" transform="translate(537.6591033935547,232.72584533691406)"/>
<path d="M0 0 C1.12833252 -0.00997513 2.25666504 -0.01995026 3.41918945 -0.03022766 C4.64785233 -0.03089233 5.8765152 -0.03155701 7.14241028 -0.03224182 C8.44380951 -0.04056534 9.74520874 -0.04888885 11.08604431 -0.0574646 C14.65036426 -0.07937305 18.21459844 -0.08820398 21.77897811 -0.09329104 C24.00948517 -0.0969401 26.23996997 -0.10318312 28.47046852 -0.11029243 C36.2626557 -0.13477793 44.05477644 -0.14783608 51.84700012 -0.15138245 C59.0924052 -0.15501313 66.33738548 -0.18487689 73.58266085 -0.22678703 C79.81642665 -0.2615724 86.05005228 -0.27693233 92.28391439 -0.27762848 C96.00111169 -0.27841875 99.71787637 -0.28704019 103.43497276 -0.31562614 C107.58775246 -0.3468487 111.73953186 -0.33770799 115.89241028 -0.32521057 C117.110952 -0.34004486 118.32949371 -0.35487915 119.58496094 -0.37016296 C128.36923667 -0.29508931 135.00253618 1.6032343 141.77839661 7.33665466 C142.55183411 8.29571716 142.55183411 8.29571716 143.34089661 9.27415466 C144.14527161 10.23321716 144.14527161 10.23321716 144.96589661 11.21165466 C148.08177572 15.88547333 148.61479018 19.75153081 148.59089661 25.33665466 C148.59863098 27.14843201 148.59863098 27.14843201 148.60652161 28.99681091 C148.3596741 32.04247356 147.94345636 33.72404966 146.34089661 36.27415466 C148.19714661 36.08852966 148.19714661 36.08852966 150.09089661 35.89915466 C157.30111004 35.91054521 163.96648541 39.3165825 169.33308411 44.02024841 C175.92876699 51.38706834 177.62244882 58.64211547 177.57527161 68.27806091 C177.26674166 72.22210211 176.22251736 74.82451661 174.34089661 78.27415466 C175.11433411 78.37212341 175.88777161 78.47009216 176.68464661 78.57102966 C186.16979504 79.93275889 192.88252943 81.91879205 199.34089661 89.27415466 C200.04214661 90.05790466 200.74339661 90.84165466 201.46589661 91.64915466 C206.22688332 98.31453607 207.36562443 104.17341156 206.34089661 112.27415466 C205.25743604 116.05923118 203.90538136 119.66326797 202.34089661 123.27415466 C203.79495911 123.36696716 203.79495911 123.36696716 205.27839661 123.46165466 C213.62483596 124.72626669 219.0199255 129.39871355 223.93074036 135.99290466 C228.53067248 143.4343461 228.44028418 152.33376637 226.87605286 160.78587341 C223.96358446 169.55774569 217.83161213 173.96643261 210.02449036 178.20774841 C207.23572258 179.31594871 205.30962088 179.49425899 202.34089661 179.27415466 C202.77402161 180.03985779 202.77402161 180.03985779 203.21589661 180.82102966 C206.9390777 188.11225931 207.74128123 195.12988464 205.57527161 203.08665466 C202.26995069 211.90084378 197.40082681 216.60787928 189.34089661 221.27415466 C184.48760205 223.39747103 179.57206666 223.83241141 174.34089661 224.27415466 C174.83589661 225.34665466 175.33089661 226.41915466 175.84089661 227.52415466 C178.76650456 235.55190983 178.36529261 242.91910606 174.77839661 250.64915466 C170.29979001 258.66460479 164.23984785 263.70629808 155.34089661 266.27415466 C152.24889372 266.5650563 149.45644511 266.47196727 146.34089661 266.27415466 C146.66316223 266.80653748 146.98542786 267.33892029 147.31745911 267.88743591 C149.92098656 273.95902093 149.20390202 282.0743487 146.84089661 288.14915466 C143.71494089 294.15805893 138.7736747 297.85120899 133.02839661 301.21165466 C128.07586432 302.63865549 123.45725275 302.52395867 118.34089661 302.27415466 C118.67089661 302.93415466 119.00089661 303.59415466 119.34089661 304.27415466 C120.08677466 311.20016512 120.05064696 316.8599176 115.83308411 322.59056091 C111.24287605 327.76956529 106.74313119 331.02559567 99.68041992 331.5415802 C98.24466353 331.55945185 96.80874555 331.56644973 95.37287903 331.56468201 C94.58520645 331.57139923 93.79753387 331.57811646 92.98599243 331.58503723 C90.38938538 331.60399034 87.79303722 331.60794019 85.19636536 331.61009216 C83.38421524 331.61652245 81.57206616 331.62325098 79.75991821 331.63026428 C75.96291193 331.64223067 72.16599658 331.64594581 68.36897278 331.64476013 C63.51684131 331.64455709 58.66529652 331.67184647 53.81330395 331.70630455 C50.07022453 331.72860488 46.32728554 331.7325967 42.5841465 331.73154068 C40.79606926 331.73389241 39.00798791 331.74269172 37.21997643 331.75820541 C34.71193939 331.77792734 32.20515749 331.77200356 29.69709778 331.75999451 C28.96695465 331.77123352 28.23681152 331.78247253 27.48454285 331.79405212 C21.2084751 331.71815858 16.04628192 329.65572938 11.31745911 325.49290466 C10.87144348 324.92571716 10.42542786 324.35852966 9.96589661 323.77415466 C9.50441223 323.20696716 9.04292786 322.63977966 8.56745911 322.05540466 C5.74305582 317.95372346 5.085376 315.18267967 5.15339661 310.14915466 C5.15984192 309.09470154 5.16628723 308.04024841 5.17292786 306.95384216 C5.34089661 304.27415466 5.34089661 304.27415466 6.34089661 302.27415466 C5.56745911 302.32056091 4.79402161 302.36696716 3.99714661 302.41477966 C-2.83552131 302.65155528 -8.13852163 302.56921309 -13.65910339 298.27415466 C-19.45648957 292.83781567 -23.26655127 288.13487364 -23.92472839 279.98509216 C-23.91957214 278.88423279 -23.91441589 277.78337341 -23.90910339 276.64915466 C-23.91683777 274.99013123 -23.91683777 274.99013123 -23.92472839 273.29759216 C-23.66958724 270.39348555 -23.16812338 268.72930624 -21.65910339 266.27415466 C-23.39160339 266.36696716 -23.39160339 266.36696716 -25.15910339 266.46165466 C-33.15811919 266.41940634 -40.02522606 262.87318328 -45.65910339 257.27415466 C-51.59713163 249.00470969 -53.42669742 242.41918899 -52.65910339 232.27415466 C-51.90390595 229.38947607 -50.91478075 226.99478893 -49.65910339 224.27415466 C-50.92754089 224.14460388 -50.92754089 224.14460388 -52.22160339 224.01243591 C-62.42774879 222.74826563 -68.81380375 220.07019037 -75.65910339 212.27415466 C-81.33563978 204.65137723 -82.68945726 197.65516715 -81.65910339 188.27415466 C-80.62631413 185.08148872 -79.30963654 182.19206147 -77.65910339 179.27415466 C-78.77285339 179.25352966 -79.88660339 179.23290466 -81.03410339 179.21165466 C-87.83770709 178.33104638 -93.28499932 174.12787572 -97.59269714 168.94993591 C-103.21266434 160.79626647 -103.51938008 152.99429245 -102.65910339 143.27415466 C-100.33648164 135.28558567 -95.57105912 130.26810863 -88.60832214 126.02415466 C-84.88469312 124.00455926 -81.99552482 122.73210199 -77.65910339 123.27415466 C-77.94785339 122.77528748 -78.23660339 122.27642029 -78.53410339 121.76243591 C-82.02364877 115.01355823 -82.71567384 108.78855653 -81.65910339 101.27415466 C-79.63950578 95.17397662 -76.57493129 90.45260838 -71.65910339 86.27415466 C-70.87535339 85.57290466 -70.09160339 84.87165466 -69.28410339 84.14915466 C-62.96897075 79.63834563 -57.26023675 78.71768156 -49.65910339 78.27415466 C-50.15410339 77.40790466 -50.64910339 76.54165466 -51.15910339 75.64915466 C-53.93898961 69.06028975 -53.78224202 61.22955593 -51.85050964 54.42649841 C-48.38371992 46.66520793 -42.47095012 41.49195639 -35.22160339 37.27415466 C-30.62143984 35.98288068 -26.40228126 36.01647699 -21.65910339 36.27415466 C-21.98136902 35.75337341 -22.30363464 35.23259216 -22.63566589 34.69602966 C-25.00729877 29.08376867 -24.48657116 21.70620216 -23.07707214 15.86009216 C-20.34515026 9.59787852 -14.49633245 4.09450298 -8.36802197 1.18728542 C-5.41483376 0.19181549 -3.11101002 0.01479414 0 0 Z M-7.65910339 18.27415466 C-10.12051586 21.96627336 -10.34560546 24.98770271 -9.65910339 29.27415466 C-7.4951421 32.82923393 -5.51961628 34.79448482 -1.65910339 36.27415466 C1.71700386 36.58899407 1.71700386 36.58899407 5.5403595 36.56126404 C6.61665367 36.5715136 6.61665367 36.5715136 7.71469116 36.58197021 C9.26863548 36.5955334 10.82262412 36.60460261 12.37661934 36.60968018 C14.83528278 36.617978 17.29357636 36.63848933 19.75213623 36.66221619 C25.85616771 36.71859254 31.96028888 36.75385881 38.06446838 36.7898407 C43.22660425 36.82106736 48.38855987 36.86024032 53.55055046 36.91009521 C55.9741035 36.93018131 58.39751751 36.9384857 60.82113647 36.94639587 C62.30437225 36.95936598 63.78760335 36.97288595 65.27082825 36.98704529 C66.56670364 36.99433655 67.86257904 37.00162781 69.19772339 37.00914001 C72.34089661 37.27415466 72.34089661 37.27415466 75.34089661 39.27415466 C75.73933411 41.14915466 75.73933411 41.14915466 75.71589661 43.27415466 C75.72363098 43.97540466 75.73136536 44.67665466 75.73933411 45.39915466 C75.34089661 47.27415466 75.34089661 47.27415466 72.34089661 49.27415466 C70.42956924 49.52469444 70.42956924 49.52469444 68.23085022 49.52571106 C66.9777153 49.53378532 66.9777153 49.53378532 65.69926453 49.54202271 C64.78597382 49.53789871 63.87268311 49.53377472 62.93171692 49.52952576 C61.96716583 49.53314621 61.00261475 49.53676666 60.00883484 49.54049683 C57.91192319 49.54739586 55.81499356 49.54989532 53.71807098 49.54854965 C50.39729644 49.54758586 47.07684688 49.56051023 43.75611877 49.57752991 C34.31370076 49.62384155 24.87131485 49.64840275 15.42878723 49.65501404 C9.65451497 49.66003222 3.88058031 49.68430113 -1.89357758 49.72034073 C-4.09272992 49.73013443 -6.29192874 49.73247304 -8.4910965 49.72716904 C-11.57187882 49.72008901 -14.65165799 49.7374018 -17.73234558 49.75999451 C-18.63753937 49.75182205 -19.54273315 49.7436496 -20.47535706 49.73522949 C-26.36910251 49.81195509 -29.80241955 50.89289702 -34.65910339 54.27415466 C-37.55519058 57.38799276 -38.56341034 60.60430329 -39.15910339 64.77415466 C-38.35835276 70.3794091 -36.4989834 73.78907871 -32.08781433 77.34959412 C-28.04235653 79.62033919 -24.84743266 79.81150687 -20.33879089 79.74290466 C-19.55770966 79.74995422 -18.77662842 79.75700378 -17.97187805 79.76426697 C-15.49228176 79.78620893 -13.01376782 79.78331539 -10.53410339 79.77415466 C-7.26008383 79.76211084 -3.98766937 79.77578408 -0.71379089 79.80540466 C0.40819199 79.78842529 0.40819199 79.78842529 1.55284119 79.77110291 C5.04212692 79.80498579 6.99926418 80.02465605 9.85212708 82.10813904 C11.34089661 84.27415466 11.34089661 84.27415466 11.21589661 87.39915466 C10.34089661 90.27415466 10.34089661 90.27415466 8.34089661 92.27415466 C5.67311096 92.52571106 5.67311096 92.52571106 2.24226379 92.52952576 C0.96043213 92.53648468 -0.32139954 92.5434436 -1.64207458 92.5506134 C-2.32940926 92.54993237 -3.01674393 92.54925133 -3.72490692 92.54854965 C-5.87762195 92.54758527 -8.02983639 92.5605171 -10.18247986 92.57752991 C-16.30339113 92.62381826 -22.42425368 92.64839211 -28.54533386 92.65501404 C-32.2890829 92.66004094 -36.03231339 92.68435477 -39.77588654 92.72034073 C-41.19993215 92.73011656 -42.62404933 92.73248275 -44.04811859 92.72716904 C-46.04639388 92.72006574 -48.04470943 92.73952049 -50.04289246 92.75999451 C-51.17825439 92.76284454 -52.31361633 92.76569458 -53.48338318 92.76863098 C-58.34490316 93.54250693 -61.39194286 96.17372578 -65.03410339 99.33665466 C-67.54794883 103.88091372 -67.39663855 108.20080678 -66.65910339 113.27415466 C-64.46429712 117.82634546 -62.23100179 120.19576591 -57.65910339 122.27415466 C-54.18607511 122.70947547 -50.73715182 122.67043351 -47.2408905 122.64305115 C-45.66935463 122.64870087 -45.66935463 122.64870087 -44.06607056 122.65446472 C-41.7945743 122.66089376 -39.52305114 122.6605704 -37.25155449 122.65427971 C-33.65834408 122.64517722 -30.06565629 122.65538339 -26.47247314 122.67089844 C-16.25791742 122.71102771 -6.04340255 122.71219627 4.17121887 122.70994568 C10.42107377 122.70989467 16.670646 122.72901539 22.92042351 122.75927925 C26.46368284 122.77013393 30.00640963 122.75795746 33.5496521 122.74545288 C35.71713291 122.75435397 37.88460933 122.76442719 40.05207825 122.77586365 C41.03972168 122.76612015 42.02736511 122.75637665 43.04493713 122.74633789 C49.66929629 122.81628671 49.66929629 122.81628671 52.987854 125.07873535 C54.34089661 127.27415466 54.34089661 127.27415466 54.27839661 130.89915466 C53.34089661 134.27415466 53.34089661 134.27415466 50.34089661 136.27415466 C47.95825481 136.52469444 47.95825481 136.52469444 45.08520508 136.52571106 C43.45126549 136.53378532 43.45126549 136.53378532 41.78431702 136.54202271 C40.58893311 136.53789871 39.39354919 136.53377472 38.16194153 136.52952576 C36.22969249 136.53508328 34.29744346 136.54064514 32.36519492 136.54636979 C30.2873245 136.55071167 28.20950183 136.55023945 26.13162804 136.54854965 C21.79883528 136.54571717 17.46620568 136.56006668 13.13345337 136.57752991 C0.81257077 136.62456107 -11.50830105 136.6484932 -23.82926941 136.65501404 C-30.63370047 136.65876729 -37.4379472 136.676819 -44.24229926 136.7101084 C-48.54683358 136.73030627 -52.85089196 136.73270068 -57.15545428 136.72182822 C-60.46773046 136.71860336 -63.77974145 136.74132402 -67.09196472 136.75999451 C-68.28127594 136.75182205 -69.47058716 136.7436496 -70.69593811 136.73522949 C-76.97818911 136.79830934 -80.91382429 136.99115933 -85.65910339 141.27415466 C-88.80737078 144.94713328 -89.18247907 148.30709077 -89.01066589 152.99290466 C-88.2949866 157.63686811 -86.25823255 161.03938557 -82.4941721 163.94580841 C-78.93943723 165.61134785 -75.83017488 165.69000903 -71.98550415 165.6526947 C-70.83789292 165.6594899 -70.83789292 165.6594899 -69.66709763 165.66642237 C-67.10753704 165.67803507 -64.54850017 165.66840416 -61.98893738 165.65892029 C-60.15234541 165.66302585 -58.31575604 165.66848663 -56.47917175 165.67520142 C-52.52643163 165.68692525 -48.57383112 165.68941121 -44.62107658 165.68484497 C-38.37318661 165.67804016 -32.1254807 165.69389423 -25.87762451 165.71324158 C-11.48887057 165.75432987 2.89987835 165.76564876 17.28868103 165.77677155 C30.47874552 165.78727234 43.66872175 165.80401025 56.85873169 165.84486723 C63.07214847 165.8632528 69.28535523 165.8671055 75.49879277 165.85993195 C79.36019421 165.85841291 83.22149001 165.86917592 87.08286285 165.88331032 C88.87595917 165.88732161 90.66907541 165.8861733 92.46216393 165.87953758 C94.90646259 165.8711853 97.35002687 165.88111222 99.79428101 165.89561462 C100.50682637 165.88872069 101.21937174 165.88182675 101.95350939 165.87472391 C105.03113001 165.91039452 107.08486358 166.12953729 109.78814602 167.65645599 C111.34089661 169.27415466 111.34089661 169.27415466 111.73152161 171.53587341 C111.68511536 172.33638123 111.63870911 173.13688904 111.59089661 173.96165466 C111.55480286 174.76989685 111.51870911 175.57813904 111.48152161 176.41087341 C111.43511536 177.02575623 111.38870911 177.64063904 111.34089661 178.27415466 C107.74495198 179.39275701 104.38823105 179.40154268 100.63621521 179.40545654 C99.62675954 179.40863011 99.62675954 179.40863011 98.59691083 179.4118678 C96.34309934 179.41785671 94.089344 179.41686844 91.83552551 179.41600037 C90.21907455 179.41903257 88.60262445 179.4225542 86.98617554 179.42652893 C83.50546295 179.43441315 80.0247606 179.43956103 76.54404068 179.4428196 C71.03923154 179.44873262 65.53448695 179.46527539 60.02970886 179.48416138 C58.14473156 179.49049859 56.25975422 179.49682422 54.37477684 179.50313854 C52.95886729 179.50788726 52.95886729 179.50788726 51.51435351 179.51273191 C38.69938447 179.55480417 25.88444576 179.58778993 13.06941223 179.6000824 C4.4239227 179.60846053 -4.22140673 179.63094064 -12.86681616 179.66943806 C-17.44116103 179.68920445 -22.01526652 179.70160131 -26.58965683 179.69660378 C-30.89241726 179.69196009 -35.19472374 179.70574721 -39.49739265 179.73361588 C-41.0751668 179.74053194 -42.65298785 179.74064972 -44.23076057 179.7334156 C-46.38786455 179.72452515 -48.54347209 179.74022106 -50.70045471 179.76190186 C-51.90649542 179.76429021 -53.11253613 179.76667856 -54.35512352 179.76913929 C-59.11317664 180.49641066 -62.18046659 182.75784558 -65.49894714 186.16087341 C-67.8990029 190.53269214 -67.43709969 195.47441943 -66.65910339 200.27415466 C-64.12685917 205.17826764 -60.83813665 207.560677 -55.65910339 209.27415466 C-52.30544965 209.5798147 -52.30544965 209.5798147 -48.62150574 209.5453949 C-47.93309097 209.55062164 -47.24467621 209.55584839 -46.53540039 209.56123352 C-45.04803611 209.57143705 -43.56063648 209.57724754 -42.07323837 209.57911491 C-39.71949934 209.58278827 -37.36617797 209.59953851 -35.01252747 209.61987305 C-28.32350919 209.67521009 -21.63443137 209.70603392 -14.94523621 209.73045349 C-10.84799363 209.74631023 -6.75105192 209.77650117 -2.653965 209.81521797 C-1.09346834 209.82687665 0.46708202 209.8327984 2.02762222 209.83289909 C4.2060985 209.83309074 6.38374099 209.85132308 8.56208801 209.8735199 C9.80165253 209.87859055 11.04121704 209.88366119 12.31834412 209.8888855 C15.34089661 210.27415466 15.34089661 210.27415466 17.27238464 211.57653809 C18.34089661 213.27415466 18.34089661 213.27415466 18.21589661 216.83665466 C17.34089661 220.27415466 17.34089661 220.27415466 14.34089661 222.27415466 C12.38806152 222.52571106 12.38806152 222.52571106 10.14826965 222.52952576 C9.30697006 222.53648468 8.46567047 222.5434436 7.59887695 222.5506134 C6.69261063 222.54961639 5.7863443 222.54861938 4.85261536 222.54759216 C2.93008354 222.56788541 1.00755754 222.58873627 -0.91496277 222.61009216 C-3.94325162 222.63267119 -6.97131047 222.6491541 -9.99967957 222.65501404 C-12.92433693 222.66455537 -15.84795984 222.69835745 -18.77238464 222.73509216 C-20.12267509 222.72752396 -20.12267509 222.72752396 -21.50024414 222.71980286 C-27.04943961 222.80631454 -30.25402809 223.57546019 -34.65910339 227.27415466 C-37.5090133 230.51715559 -38.52572694 233.14045478 -39.03410339 237.46165466 C-38.55940194 242.28778615 -36.97958575 245.72201075 -33.65910339 249.27415466 C-28.36111395 252.65463286 -23.84791005 252.70079541 -17.77238464 252.68040466 C-16.83355942 252.69124084 -15.89473419 252.70207703 -14.92745972 252.71324158 C-10.92749368 252.75900135 -6.92759508 252.77062787 -2.92741394 252.78538513 C-0.00050044 252.80104088 2.92586548 252.83401971 5.85261536 252.86790466 C6.75888168 252.86488342 7.66514801 252.86186218 8.59887695 252.85874939 C9.44017654 252.86886047 10.28147614 252.87897156 11.14826965 252.88938904 C11.88740097 252.89144348 12.62653229 252.89349792 13.38806152 252.89561462 C15.9283986 253.3880368 16.83613769 254.18974066 18.34089661 256.27415466 C18.00756327 262.607488 18.00756327 262.607488 15.34089661 265.27415466 C11.82113449 265.53405271 8.34100798 265.64057757 4.81355286 265.66477966 C-0.44105065 265.82984574 -3.48662095 266.79708596 -7.65910339 270.27415466 C-10.12051586 273.96627336 -10.34560546 276.98770271 -9.65910339 281.27415466 C-7.49697205 284.82622758 -5.53555493 286.83682314 -1.65910339 288.27415466 C1.23567101 288.48754742 4.04262072 288.59882937 6.93855286 288.61790466 C8.1845652 288.63983887 8.1845652 288.63983887 9.45574951 288.66221619 C13.0033305 288.72438975 16.55108286 288.76411927 20.09895325 288.80589294 C22.69150554 288.83960871 25.28368842 288.8847173 27.87605286 288.93040466 C29.08081017 288.93832031 29.08081017 288.93832031 30.30990601 288.94639587 C34.16171407 289.01550475 36.06272684 289.08870815 39.34089661 291.27415466 C39.73933411 293.14915466 39.73933411 293.14915466 39.71589661 295.27415466 C39.72363098 295.97540466 39.73136536 296.67665466 39.73933411 297.39915466 C39.34089661 299.27415466 39.34089661 299.27415466 36.34089661 301.27415466 C33.04686595 301.57478328 29.77598713 301.65234352 26.46980286 301.73509216 C22.76563021 302.37326423 21.58504383 303.31252768 19.34089661 306.27415466 C18.59074466 309.23107176 18.59074466 309.23107176 19.34089661 312.27415466 C22.00286254 315.68553485 23.48751182 317.11723366 27.79377747 317.90907288 C29.13077918 317.93856726 30.46855939 317.94088978 31.80574036 317.92112732 C32.53971039 317.92988892 33.27368042 317.93865051 34.02989197 317.94767761 C36.4466685 317.96961474 38.86160277 317.95514113 41.27839661 317.93821716 C42.96321462 317.94158698 44.64803026 317.94644099 46.33283997 317.95271301 C49.86017552 317.96007656 53.38687707 317.94939612 56.91413879 317.92601013 C61.43053655 317.89752193 65.94544872 317.91392878 70.46179199 317.94387245 C73.9397649 317.96195986 77.41738688 317.95618095 80.89537048 317.94323349 C82.56030962 317.93990343 84.22528085 317.94397253 85.8901825 317.95563126 C88.21966144 317.96836475 90.54675144 317.94893281 92.87605286 317.92112732 C93.90328964 317.93630905 93.90328964 317.93630905 94.95127869 317.95179749 C98.73275079 317.86837784 100.28037264 317.32271933 103.26838684 314.92512512 C105.54960416 312.41325122 105.54960416 312.41325122 105.96589661 309.21165466 C105.57658603 306.17075673 105.57658603 306.17075673 103.38630676 304.12205505 C99.18714928 301.57408143 95.81053528 301.72446236 90.98933411 301.77024841 C90.09348602 301.76082718 89.19763794 301.75140594 88.27464294 301.74169922 C85.4214931 301.7130841 82.56917831 301.7099706 79.71589661 301.71165466 C76.85559633 301.70805045 73.99590032 301.69857552 71.13572693 301.67089844 C69.35844098 301.65406963 67.58095529 301.65126601 65.80363464 301.66390991 C64.99914886 301.65702652 64.19466309 301.65014313 63.36579895 301.64305115 C62.65918121 301.64401291 61.95256348 301.64497467 61.22453308 301.64596558 C58.74630413 301.15678808 57.85976978 300.26182418 56.34089661 298.27415466 C55.70806622 293.21151153 55.70806622 293.21151153 57.46459961 290.60971069 C60.21929676 288.64890577 62.37847186 288.90248701 65.73664856 288.90525818 C66.38093811 288.9014917 67.02522766 288.89772522 67.68904114 288.8938446 C69.08695331 288.88741343 70.48490921 288.88774101 71.88282204 288.89402962 C74.0987324 288.90314132 76.31379673 288.89291516 78.52966309 288.87741089 C84.82895069 288.83731954 91.12817258 288.8361043 97.42756653 288.83836365 C101.28265548 288.83841486 105.13728996 288.81918699 108.99225426 288.78903008 C111.16942441 288.77823326 113.34571606 288.79031953 115.52285767 288.80285645 C116.86756749 288.79394687 118.21227026 288.78387069 119.55696106 288.77244568 C120.72483658 288.77261185 121.8927121 288.77277802 123.09597778 288.77294922 C127.59764737 288.0809725 130.94605628 286.11280783 133.71589661 282.46165466 C134.64267894 279.21791651 134.69430556 276.63153974 134.34089661 273.27415466 C132.15082533 269.75439726 130.20760494 267.71234308 126.34089661 266.27415466 C122.72379927 265.88292533 119.08737029 265.8597348 115.45222473 265.79563904 C109.81678704 265.59419793 109.81678704 265.59419793 107.33699036 263.92649841 C105.75450301 261.30143117 105.96779204 259.25899116 106.34089661 256.27415466 C107.86530397 254.27490154 108.75106457 253.38949309 111.24230957 252.90234375 C112.31531059 252.90378639 112.31531059 252.90378639 113.4099884 252.90525818 C114.22481186 252.89837479 115.03963531 252.89149139 115.87915039 252.88439941 C116.75726883 252.89055771 117.63538727 252.896716 118.54011536 252.90306091 C120.40795563 252.88566809 122.27579413 252.86808383 124.14363098 252.85032654 C127.08173549 252.84028383 130.01971907 252.8366496 132.95783997 252.83836365 C135.79812778 252.83477289 138.63749298 252.80734246 141.47761536 252.77806091 C142.77961128 252.7903347 142.77961128 252.7903347 144.10791016 252.80285645 C149.90974916 252.7327556 154.55727949 251.70283526 159.34089661 248.27415466 C162.13035916 245.11154839 163.24299271 241.95948194 163.84089661 237.77415466 C163.10243679 232.60493596 161.21649117 228.97924063 157.27839661 225.39915466 C154.17689095 223.59828041 151.61407661 223.14694313 148.10066223 223.11643982 C147.24967957 223.10617767 146.3986969 223.09591553 145.52192688 223.08534241 C144.60624939 223.07804108 143.6905719 223.07073975 142.74714661 223.06321716 C140.81094008 223.0351595 138.87474226 223.00649511 136.93855286 222.97727966 C133.88370405 222.93593806 130.82901991 222.89905255 127.77400208 222.87278748 C124.82720856 222.84525179 121.88115641 222.79939354 118.93464661 222.75071716 C118.01896912 222.74746429 117.10329163 222.74421143 116.15986633 222.74085999 C115.30888367 222.72429352 114.457901 222.70772705 113.58113098 222.69065857 C112.45886108 222.67852829 112.45886108 222.67852829 111.31391907 222.66615295 C108.78158637 222.16303142 107.88330398 221.31690266 106.34089661 219.27415466 C105.91611075 215.19621041 106.02807074 213.74339347 108.34089661 210.27415466 C111.27442932 209.89561462 111.27442932 209.89561462 115.08210754 209.88938904 C115.77501892 209.88401627 116.4679303 209.87864349 117.18183899 209.87310791 C118.68888812 209.86331336 120.19599377 209.86039083 121.70307159 209.86346436 C124.09110462 209.8679343 126.47839326 209.85396445 128.86634827 209.83506775 C133.94118535 209.79822348 139.01594548 209.78457575 144.09089661 209.77415466 C149.95824028 209.76206994 155.82522356 209.74043633 161.6924057 209.69415283 C164.04004155 209.68060793 166.3872191 209.68475007 168.73487854 209.68955994 C170.18396073 209.6802139 171.63303791 209.67004372 173.08210754 209.65892029 C174.34182373 209.65686584 175.60153992 209.6548114 176.89942932 209.6526947 C182.05736165 209.08535416 185.30173627 207.15518191 189.21589661 203.83665466 C192.18394425 199.99168385 192.03297257 195.81881832 191.82917786 191.12571716 C191.07545601 186.72398157 189.74361977 185.14756534 186.34089661 182.27415466 C182.85951374 180.60172984 180.09351521 180.02438112 176.24690247 180.01878357 C175.25915329 180.01182465 174.27140411 180.00486572 173.25372314 179.99769592 C172.19838882 179.99869293 171.1430545 179.99968994 170.05574036 180.00071716 C167.81159466 179.98043715 165.56745407 179.95958655 163.32331848 179.93821716 C159.79226869 179.91557118 156.26142011 179.89912663 152.7303009 179.89329529 C149.31757977 179.88379638 145.90576028 179.85006063 142.49324036 179.81321716 C141.43588181 179.81826263 140.37852325 179.82330811 139.28912354 179.82850647 C132.02314037 179.73062834 132.02314037 179.73062834 128.63996887 177.46702576 C127.34089661 175.27415466 127.34089661 175.27415466 127.40339661 171.64915466 C128.34089661 168.27415466 128.34089661 168.27415466 131.34089661 166.27415466 C134.38795471 166.02259827 134.38795471 166.02259827 138.17976379 166.01878357 C138.8712149 166.01516312 139.56266602 166.01154266 140.27507019 166.0078125 C141.77611217 166.00092165 143.27717919 165.99841249 144.77823639 165.99975967 C147.15812069 166.00072542 149.5375539 165.98777592 151.91737366 165.97077942 C158.68351204 165.92453124 165.44960563 165.89991656 172.21589661 165.89329529 C176.35629589 165.88826678 180.49622665 165.86394595 184.63646698 165.8279686 C186.21040782 165.81819801 187.78441336 165.81582366 189.35837555 165.82114029 C191.56757237 165.8282501 193.77538507 165.81084981 195.98445129 165.78831482 C197.23893066 165.78546478 198.49341003 165.78261475 199.78590393 165.77967834 C204.26371065 165.14292954 206.60272311 163.79972227 210.34089661 161.27415466 C213.70026469 156.61438603 214.22987042 151.84772081 213.34089661 146.27415466 C210.91793554 141.24185092 208.51995727 139.21293372 203.34089661 137.27415466 C199.18723897 136.84011571 195.05442229 136.87792214 190.88142395 136.90525818 C189.62876236 136.9014917 188.37610077 136.89772522 187.08547974 136.8938446 C184.36959963 136.88741529 181.65432133 136.88629269 178.93850327 136.89402962 C174.64379473 136.9056416 170.34935462 136.89342719 166.05467224 136.87741089 C155.39157201 136.84127132 144.72847881 136.83498951 134.06532288 136.83750916 C125.76961459 136.83921989 117.47412637 136.83212541 109.17847979 136.79753059 C104.90931759 136.78073139 100.64069231 136.7825343 96.3715322 136.79835331 C93.09482812 136.80550483 89.81824931 136.78692206 86.5415802 136.77244568 C84.76792336 136.78706093 84.76792336 136.78706093 82.95843506 136.80197144 C81.3350547 136.78760544 81.3350547 136.78760544 79.67887878 136.77294922 C78.73906851 136.7731585 77.79925823 136.77336779 76.83096886 136.77358341 C73.55315638 136.1161592 72.33909496 134.91289144 70.34089661 132.27415466 C70.40339661 128.64915466 70.40339661 128.64915466 71.34089661 125.27415466 C74.46966034 123.18831217 75.16725015 123.02333463 78.72341919 123.01586914 C79.61918671 123.00904114 80.51495422 123.00221313 81.43786621 122.99517822 C82.9083416 122.99900764 82.9083416 122.99900764 84.40852356 123.00291443 C85.44295593 122.99768768 86.47738831 122.99246094 87.54316711 122.98707581 C89.7923156 122.97682445 92.04148788 122.97105343 94.29065895 122.96919441 C97.85058345 122.96553893 101.41022732 122.94883402 104.97009277 122.92843628 C115.09258304 122.87294861 125.21511514 122.84234316 135.33772278 122.81785583 C141.52690682 122.80197967 147.71589262 122.77175731 153.90497398 122.73309135 C156.26404401 122.72143929 158.62314951 122.71551099 160.98224831 122.71541023 C164.2834046 122.71521815 167.5840146 122.69694835 170.88508606 122.67478943 C172.34645241 122.6816552 172.34645241 122.6816552 173.83734131 122.68865967 C179.09086688 122.63260615 182.81012121 122.23639822 187.34089661 119.27415466 C190.75757933 115.67764654 191.6740582 112.6718864 191.96589661 107.83665466 C191.78251862 102.85149017 190.53587626 100.20114866 187.14167786 96.61399841 C182.99412094 93.52807212 179.09666665 93.02336781 174.02053833 93.01586914 C172.74601807 93.00904114 171.4714978 93.00221313 170.15835571 92.99517822 C168.75346346 92.99759735 167.34857149 93.0001816 165.94367981 93.00291443 C164.45851863 92.99852558 162.9733599 92.99322284 161.48820496 92.98707581 C158.29505216 92.97559045 155.1019656 92.9701175 151.9087925 92.96919441 C146.86283966 92.96725292 141.81702398 92.94919746 136.77111816 92.92843628 C124.24233257 92.8792673 111.71350992 92.8483222 99.18464661 92.82713318 C89.4395981 92.81063045 79.69466751 92.78788846 69.94969815 92.74411243 C64.92994905 92.72228234 59.9104237 92.71428306 54.89063036 92.71650517 C51.77444122 92.71484357 48.65839947 92.70082781 45.54226303 92.68329239 C44.09342071 92.67767306 42.64454808 92.67722577 41.19570351 92.68223 C39.22389843 92.68832858 37.25206121 92.67444931 35.28030396 92.65942383 C34.17511571 92.6574125 33.06992746 92.65540117 31.93124866 92.6533289 C31.07643249 92.5282014 30.22161631 92.4030739 29.34089661 92.27415466 C27.02807074 88.80491586 26.91611075 87.35209891 27.34089661 83.27415466 C28.95782813 81.05593222 29.85095719 80.35650383 32.58018875 79.89777374 C33.46062725 79.89706123 34.34106575 79.89634872 35.2481842 79.89561462 C36.76636497 79.88331062 36.76636497 79.88331062 38.31521606 79.87075806 C39.42487228 79.87690628 40.5345285 79.8830545 41.67781067 79.88938904 C43.43187477 79.88132988 43.43187477 79.88132988 45.22137451 79.87310791 C48.43033821 79.86074922 51.63900505 79.86141157 54.84797764 79.86683846 C58.20933731 79.86862279 61.57058684 79.85121087 64.93190002 79.83506775 C73.48488346 79.79719134 82.03784218 79.78441856 90.59089661 79.77415466 C99.81110507 79.76307715 109.03118204 79.74764031 118.25130057 79.7034421 C122.89308965 79.68218296 127.53455701 79.68393748 132.17640686 79.68955994 C134.61307621 79.6802181 137.04974258 79.67004898 139.48640442 79.65892029 C141.13874336 79.66814262 141.13874336 79.66814262 142.82446289 79.67755127 C148.77191123 79.62988179 153.11692979 79.20673481 158.34089661 76.27415466 C161.76748299 72.66722163 163.17440672 70.00564945 163.65339661 65.02415466 C163.28887139 60.6498521 162.35421109 57.51403415 159.34089661 54.27415466 C152.88259127 49.43227675 146.94589313 49.73256574 139.07527161 49.80540466 C137.80492065 49.7983551 136.5345697 49.79130554 135.22572327 49.78404236 C131.18056154 49.76203109 127.13606932 49.76419532 123.09089661 49.77415466 C117.7520215 49.78724942 112.41412927 49.77262111 107.07527161 49.74290466 C105.84403564 49.75422424 104.61279968 49.76554382 103.34425354 49.77720642 C102.20587036 49.77039856 101.06748718 49.7635907 99.89460754 49.75657654 C98.89201904 49.75975891 97.88943054 49.76294128 96.85646057 49.76622009 C94.34089661 49.27415466 94.34089661 49.27415466 92.51722717 47.40415955 C91.05883761 44.7634249 90.88330647 43.24849057 91.34089661 40.27415466 C92.42170715 38.64500427 92.42170715 38.64500427 94.34089661 37.27415466 C97.52375793 36.90525818 97.52375793 36.90525818 101.42292786 36.90306091 C102.84415414 36.88567148 104.26537804 36.86808718 105.68659973 36.85032654 C107.91817242 36.84027772 110.14958549 36.83665174 112.38117981 36.83836365 C114.54140658 36.83477404 116.70041886 36.80735538 118.86042786 36.77806091 C120.15053772 36.77620789 121.44064758 36.77435486 122.76985168 36.77244568 C127.47041873 36.11654513 130.82263056 34.27550536 133.71589661 30.46165466 C134.64267894 27.21791651 134.69430556 24.63153974 134.34089661 21.27415466 C132.1446828 17.74452532 130.17021968 15.81243014 126.34089661 14.27415466 C123.81266581 13.96967609 123.81266581 13.96967609 121.0408783 14.00672913 C119.43011917 13.99393417 119.43011917 13.99393417 117.78681946 13.98088074 C116.6137323 13.98178711 115.44064514 13.98269348 114.23200989 13.98362732 C112.99260651 13.9769101 111.75320313 13.97019287 110.47624207 13.96327209 C107.07941523 13.94752685 103.6828329 13.94091694 100.28598642 13.93964052 C98.16255428 13.93821806 96.03914769 13.93394668 93.91572189 13.92864609 C86.50420761 13.91014733 79.09276524 13.90197526 71.68122864 13.90354919 C64.7783455 13.90475051 57.87577509 13.88364994 50.97297108 13.85206187 C45.04162063 13.82588892 39.11037224 13.81518232 33.1789645 13.81646001 C29.63856247 13.81696936 26.0984384 13.81130175 22.55809402 13.79010391 C18.6081298 13.76709879 14.65859268 13.77624875 10.70857239 13.78831482 C9.53953369 13.77707581 8.370495 13.76583679 7.16603088 13.7542572 C0.93819775 13.80265569 -2.98245813 13.98500997 -7.65910339 18.27415466 Z " fill="#040404" transform="translate(537.6591033935547,232.72584533691406)"/>
<path d="M0 0 C0.75176514 -0.01466309 1.50353027 -0.02932617 2.27807617 -0.04443359 C9.07043897 0.07902335 14.15103155 2.22892317 19.30078125 6.640625 C19.92339844 7.35734375 20.54601562 8.0740625 21.1875 8.8125 C21.82300781 9.51890625 22.45851563 10.2253125 23.11328125 10.953125 C27.25445868 17.08684235 28.41171713 23.06364257 28.3125 30.375 C28.30492676 31.16108643 28.29735352 31.94717285 28.28955078 32.75708008 C28.04540318 41.42788407 25.98671243 49.64085674 19.81640625 56.05859375 C12.75953089 61.52518734 4.77910063 63.37632276 -4.015625 62.9765625 C-11.58725104 61.96828064 -17.15231795 59.19367942 -22.5546875 53.83203125 C-27.50873388 46.67207864 -28.76763852 40.16835724 -28.625 31.5625 C-28.64046875 30.62921875 -28.6559375 29.6959375 -28.671875 28.734375 C-28.62703693 20.70836035 -26.35524331 14.97346035 -22 8.3125 C-15.32247816 1.92530519 -9.0738945 0.10958137 0 0 Z " fill="#0F9793" transform="translate(663.125,749.4375)"/>
<path d="M0 0 C7.92589031 4.10486881 13.29180408 9.62834803 16.7109375 17.90625 C18.99039783 25.36630199 18.39887796 32.90080666 14.90234375 39.80859375 C14.50917969 40.50082031 14.11601563 41.19304687 13.7109375 41.90625 C13.34871094 42.54691406 12.98648438 43.18757813 12.61328125 43.84765625 C8.38338062 50.48644944 2.15902966 53.79147414 -5.2890625 55.90625 C-14.18316437 56.97850847 -20.78165031 55.76564438 -28.2890625 50.90625 C-29.2171875 50.308125 -30.1453125 49.71 -31.1015625 49.09375 C-36.91073223 43.28458027 -40.29728144 36.32201688 -40.6015625 28.09375 C-40.37945457 19.37928017 -37.4016883 12.16347555 -31.2890625 5.90625 C-22.10745631 -1.31347453 -11.29235003 -3.75517578 0 0 Z " fill="#020202" transform="translate(611.2890625,443.09375)"/>
<path d="M0 0 C5.28 0 10.56 0 16 0 C17.24944312 13.65896067 18.34999959 27.29867549 19 41 C19.33 41 19.66 41 20 41 C20.12117188 40.05640625 20.24234375 39.1128125 20.3671875 38.140625 C21.42159996 30.06220336 22.60931303 22.02858779 24 14 C24.33 12.02 24.66 10.04 25 8 C30.28 8 35.56 8 41 8 C42.32 18.89 43.64 29.78 45 41 C46.27644757 37.1706573 46.45761228 33.39209392 46.75390625 29.39453125 C46.81907944 28.55532639 46.88425262 27.71612152 46.95140076 26.85148621 C47.15866204 24.17208429 47.36064388 21.49231401 47.5625 18.8125 C47.70212635 16.99541596 47.84209613 15.17835828 47.98242188 13.36132812 C48.32559981 8.90784805 48.66404354 4.45403042 49 0 C54.28 0 59.56 0 65 0 C62.78072836 19.73888755 59.95925571 39.36130302 57 59 C50.4 59 43.8 59 37 59 C36.72285156 56.84597656 36.44570313 54.69195313 36.16015625 52.47265625 C35.88977509 50.39415197 35.61793332 48.31584363 35.34594727 46.23754883 C35.15724163 44.78950535 34.97006273 43.34126209 34.78442383 41.89282227 C34.51781897 39.81472623 34.24578889 37.73740307 33.97265625 35.66015625 C33.81031494 34.40855713 33.64797363 33.15695801 33.48071289 31.86743164 C33.30367528 29.11018767 33.30367528 29.11018767 32 28 C31.88406494 28.83249268 31.76812988 29.66498535 31.64868164 30.52270508 C31.21669604 33.61482386 30.782179 36.70657333 30.34594727 39.7980957 C30.15775822 41.13551844 29.97057523 42.47308314 29.78442383 43.81079102 C29.51649051 45.73490946 29.24462381 47.65847889 28.97265625 49.58203125 C28.81031494 50.73936768 28.64797363 51.8967041 28.48071289 53.08911133 C28 56 28 56 27 59 C20.73 59 14.46 59 8 59 C6.27787662 49.68487809 4.73303476 40.45118573 3.7019043 31.03637695 C3.24437651 26.91000329 2.66781284 22.83652993 1.9375 18.75 C0.83883946 12.52137333 0.41145121 6.3089186 0 0 Z " fill="#109894" transform="translate(339,751)"/>
<path d="M0 0 C1.01191406 -0.02900391 2.02382813 -0.05800781 3.06640625 -0.08789062 C10.17473028 -0.14781813 16.05237352 0.70193112 21.30541992 5.83129883 C25.40463841 10.59525544 25.8993856 13.72785899 25.9609375 19.8046875 C25.98900699 21.3294378 26.01767146 22.85417725 26.046875 24.37890625 C26.08813067 26.78401374 26.12501554 29.18891869 26.15136719 31.59423828 C26.17899877 33.91481451 26.2248687 36.23446761 26.2734375 38.5546875 C26.27669037 39.27147675 26.27994324 39.98826599 26.28329468 40.72677612 C26.38744127 44.96361138 27.00995348 47.11354536 29.75 50.3125 C29.38671875 53.109375 29.38671875 53.109375 28.4375 56.0625 C28.13199219 57.04734375 27.82648437 58.0321875 27.51171875 59.046875 C27.13466797 60.16835938 27.13466797 60.16835938 26.75 61.3125 C21.71595527 61.94175559 19.39988863 61.41629244 15.3125 58.3125 C14.11187029 57.32830259 12.91966752 56.33330074 11.75 55.3125 C10.71875 56.09625 9.6875 56.88 8.625 57.6875 C1.7771043 62.49327969 -5.00013253 63.32917173 -13.25 62.3125 C-18.33450239 60.62519847 -22.01718168 58.29031128 -24.75 53.625 C-25.245 52.531875 -25.74 51.43875 -26.25 50.3125 C-26.58 49.6525 -26.91 48.9925 -27.25 48.3125 C-27.84029191 42.63661624 -27.56441063 38.12374124 -24.25 33.3125 C-19.70674587 28.5227127 -14.5410388 24.7288846 -7.81201172 24.07592773 C-5.13905417 24.01840461 -2.48493338 24.04996407 0.1875 24.125 C1.10982422 24.13853516 2.03214844 24.15207031 2.98242188 24.16601562 C5.23890383 24.20109047 7.49413226 24.25023613 9.75 24.3125 C8.46788081 18.56341872 8.46788081 18.56341872 4.75 14.3125 C-2.79475279 11.7975824 -10.66470271 13.77623726 -18.25 15.3125 C-19.57 11.6825 -20.89 8.0525 -22.25 4.3125 C-14.51571476 0.89156614 -8.47949126 0.07979446 0 0 Z " fill="#0E9793" transform="translate(806.25,749.6875)"/>
<path d="M0 0 C7.25671288 4.36883735 10.04333356 10.37194496 13.3125 18 C13.3125 23.28 13.3125 28.56 13.3125 34 C0.7725 34 -11.7675 34 -24.6875 34 C-21.75225136 42.49429657 -21.75225136 42.49429657 -18.0625 45.0625 C-12.17968146 46.69661626 -6.4423933 47.06478354 -0.8125 44.4375 C2.3125 43 2.3125 43 4.3359375 43.15625 C6.95867485 44.27583749 7.66100294 45.60988015 9.0625 48.0625 C9.49046875 48.79597656 9.9184375 49.52945313 10.359375 50.28515625 C10.83117187 51.13400391 10.83117187 51.13400391 11.3125 52 C2.19309947 59.17910254 -6.08692109 61.0161091 -17.6875 60 C-24.7275971 58.81012443 -30.67120332 56.16153466 -35.6875 51 C-41.88144921 42.20553776 -43.49850904 33.61797993 -42.6875 23 C-40.80918225 12.97773522 -35.92777408 5.95386656 -27.6875 0 C-20.06327524 -3.99806908 -7.77900186 -3.52189566 0 0 Z " fill="#109894" transform="translate(458.6875,752)"/>
<path d="M0 0 C1.15371094 -0.00257813 2.30742188 -0.00515625 3.49609375 -0.0078125 C6.5625 0.125 6.5625 0.125 9.5625 1.125 C9.87524919 9.63872785 8.93542913 17.7280674 7.5625 26.125 C3.6025 26.125 -0.3575 26.125 -4.4375 26.125 C-4.4375 22.825 -4.4375 19.525 -4.4375 16.125 C-9.62066555 17.49701441 -12.50155232 20.8287012 -15.4375 25.125 C-17.87024331 29.72296846 -17.86968701 34.34804051 -18.0625 39.4375 C-18.10117187 40.27345703 -18.13984375 41.10941406 -18.1796875 41.97070312 C-18.27345159 44.02179259 -18.35654245 46.07336515 -18.4375 48.125 C-14.4775 48.125 -10.5175 48.125 -6.4375 48.125 C-6.4375 52.085 -6.4375 56.045 -6.4375 60.125 C-18.6475 60.125 -30.8575 60.125 -43.4375 60.125 C-43.4375 56.495 -43.4375 52.865 -43.4375 49.125 C-40.7975 49.125 -38.1575 49.125 -35.4375 49.125 C-35.4375 37.245 -35.4375 25.365 -35.4375 13.125 C-38.0775 13.125 -40.7175 13.125 -43.4375 13.125 C-43.4375 9.165 -43.4375 5.205 -43.4375 1.125 C-36.5075 1.125 -29.5775 1.125 -22.4375 1.125 C-21.4475 4.425 -20.4575 7.725 -19.4375 11.125 C-18.73625 10.403125 -18.035 9.68125 -17.3125 8.9375 C-11.81138255 3.43638255 -8.03620307 -0.01791796 0 0 Z " fill="#0F9894" transform="translate(754.4375,749.875)"/>
<path d="M0 0 C11.55 0 23.1 0 35 0 C35.03738281 4.72957031 35.07476563 9.45914063 35.11328125 14.33203125 C35.14355319 17.32620851 35.17469576 20.32032576 35.20898438 23.31445312 C35.26333952 28.06808482 35.31444781 32.82159778 35.34643555 37.57543945 C35.37242319 41.4076262 35.41279253 45.239415 35.46318626 49.07135582 C35.47988589 50.53414655 35.49138088 51.99700615 35.49761391 53.45987892 C35.50722194 55.50728817 35.5352383 57.55367224 35.56762695 59.60083008 C35.58428154 61.34956169 35.58428154 61.34956169 35.60127258 63.13362122 C35.77267241 65.98934991 35.77267241 65.98934991 37.34465027 67.88163757 C39.90815488 69.61355391 42.14684726 69.28558557 45.1875 69.1875 C46.81751953 69.14689453 46.81751953 69.14689453 48.48046875 69.10546875 C49.31191406 69.07066406 50.14335938 69.03585937 51 69 C51.69937202 70.4317616 52.38412718 71.87067032 53.0625 73.3125 C53.44535156 74.11300781 53.82820312 74.91351562 54.22265625 75.73828125 C55 78 55 78 54 81 C47.49896963 84.83434559 39.27320109 84.82650012 32 84 C26.6409621 82.4228148 22.97066025 79.79875886 20 75 C18.40047602 70.88934324 17.75339087 67.48705338 17.77294922 63.08642578 C17.77310028 61.94569611 17.77325134 60.80496643 17.77340698 59.62966919 C17.78372955 58.41383148 17.79405212 57.19799377 17.8046875 55.9453125 C17.8075174 54.68862762 17.81034729 53.43194275 17.81326294 52.13717651 C17.82253877 48.81299136 17.84047619 45.48908576 17.8626709 42.16497803 C17.88321188 38.76625979 17.89228222 35.36751256 17.90234375 31.96875 C17.92436624 25.31241338 17.95887692 18.65624492 18 12 C12.06 12 6.12 12 0 12 C0 8.04 0 4.08 0 0 Z " fill="#0D9793" transform="translate(560,728)"/>
<path d="M0 0 C11.22 0 22.44 0 34 0 C34.03738281 4.72957031 34.07476563 9.45914063 34.11328125 14.33203125 C34.14355319 17.32620851 34.17469576 20.32032576 34.20898438 23.31445312 C34.26333952 28.06808482 34.31444781 32.82159778 34.34643555 37.57543945 C34.37242319 41.4076262 34.41279253 45.239415 34.46318626 49.07135582 C34.47988589 50.53414655 34.49138088 51.99700615 34.49761391 53.45987892 C34.50722194 55.50728817 34.5352383 57.55367224 34.56762695 59.60083008 C34.58428154 61.34956169 34.58428154 61.34956169 34.60127258 63.13362122 C34.77267241 65.98934991 34.77267241 65.98934991 36.34465027 67.88163757 C38.90815488 69.61355391 41.14684726 69.28558557 44.1875 69.1875 C45.81751953 69.14689453 45.81751953 69.14689453 47.48046875 69.10546875 C48.31191406 69.07066406 49.14335938 69.03585937 50 69 C50.70226141 70.24176695 51.38629109 71.49385599 52.0625 72.75 C52.63677734 73.79414062 52.63677734 73.79414062 53.22265625 74.859375 C54 77 54 77 53.890625 79.15625 C53 81 53 81 51.13671875 82.046875 C43.13489762 84.34404853 34.48267272 85.85600539 26.5625 82.5 C21.42266422 79.51247045 18.83083388 74.49250164 17 69 C16.91159912 67.14405272 16.88237296 65.28504883 16.88647461 63.42700195 C16.88655014 62.28604568 16.88662567 61.14508942 16.88670349 59.96955872 C16.89186478 58.73823715 16.89702606 57.50691559 16.90234375 56.23828125 C16.9037587 54.97735153 16.90517365 53.71642181 16.90663147 52.4172821 C16.91128425 49.06848291 16.92026658 45.71975189 16.93133545 42.37097168 C16.94157313 38.95239857 16.94613414 35.53381841 16.95117188 32.11523438 C16.96220901 25.41013496 16.9794778 18.70507683 17 12 C11.39 12 5.78 12 0 12 C0 8.04 0 4.08 0 0 Z " fill="#0D9692" transform="translate(488,728)"/>
<path d="M0 0 C4.0135848 2.46288158 5.6541393 4.54370569 7 9 C7.30641254 11.96284102 7.32471949 14.89833211 7.3125 17.875 C7.32861328 18.65230469 7.34472656 19.42960938 7.36132812 20.23046875 C7.36640488 26.27180282 6.44109684 31.29735707 2.25 35.9375 C-1.08274915 37.51129821 -3.36186893 37.51061489 -7 37 C-9.63016161 34.8272578 -11.47336894 33.05326212 -13 30 C-13.24021157 26.56800248 -13.18519627 23.12697354 -13.1875 19.6875 C-13.19974609 18.73681641 -13.21199219 17.78613281 -13.22460938 16.80664062 C-13.2374208 10.69559225 -13.19886207 6.25994157 -8.75 1.6875 C-5.42739435 -0.35137165 -3.8336503 -0.63894172 0 0 Z " fill="#FAFDFD" transform="translate(666,762)"/>
<path d="M0 0 C0.90105469 0.00902344 1.80210937 0.01804687 2.73046875 0.02734375 C3.41753906 0.03894531 4.10460937 0.05054688 4.8125 0.0625 C5.10031667 3.77213707 5.25509883 7.36173389 4.8125 11.0625 C1.48620712 14.73892897 -1.16568277 15.98009538 -6.0625 16.375 C-9.10557647 16.3252042 -10.04744874 16.15353332 -12.6875 14.4375 C-14.68494129 11.27488463 -14.93752573 9.73762607 -14.1875 6.0625 C-9.61575116 1.49075116 -6.36033071 -0.0826017 0 0 Z " fill="#F1F9F9" transform="translate(811.1875,782.9375)"/>
<path d="M0 0 C4.99503071 0.4913145 6.31841769 1.88091769 9.8125 5.375 C10.8125 7.375 10.8125 7.375 10.8125 14.375 C3.8825 14.375 -3.0475 14.375 -10.1875 14.375 C-9.06554878 5.39939024 -9.06554878 5.39939024 -4.1875 1.375 C-3.1875 0.375 -3.1875 0.375 0 0 Z " fill="#F8FCFC" transform="translate(444.1875,760.625)"/>
<path d="M0 0 C0.33 0 0.66 0 1 0 C2.512545 5.16044765 3.33500455 8.65998179 2 14 C1.67 14 1.34 14 1 14 C0.04738513 9.23692563 -0.08333357 4.8333472 0 0 Z " fill="#ADDBDA" transform="translate(357,784)"/>
</svg>
